<?xml version="1.0" encoding="utf-8"?>
<!-- Generator: Adobe Illustrator 21.0.2, SVG Export Plug-In . SVG Version: 6.00 Build 0)  -->
<svg version="1.1" id="Layer_1" xmlns="http://www.w3.org/2000/svg" xmlns:xlink="http://www.w3.org/1999/xlink" x="0px" y="0px"
	 viewBox="0 0 1200 800" style="enable-background:new 0 0 1200 800;" xml:space="preserve">
<style type="text/css">
	.st0{fill:#3CA03C;}
	.st1{fill:#B4B432;}
	.st2{fill:#C8C8C8;}
	.st3{fill:#505046;}
</style>
<rect x="-21.7" y="-6" class="st0" width="1235.3" height="826"/>
<path id="Gradient_Fill_1" class="st1" d="M-13.6,785.8C138.9,629,184.2,660.5,291.6,670.7c191,18.1,193.4-113.5,293.5-116.6
	c100.3-3.1,183.3,67.1,250.5-33.1c55.2-82.4,92.6-84.4,188.4-91.1c103.2-7.3,162.8-103.1,182.3-177.8s0,563.6,0,563.6L-14,814.3
	C-13.7,814.1-16.9,801.9-13.6,785.8z"/>
<path id="Gradient_Fill_2" class="st2" d="M-14,792.7c152.7-87.5,189.3-76.8,297-70.4c191.8,11.4,216.2-104.2,316.2-97.2
	c134.5,9.4,177.1,44.6,276.3-77.7c37.1-45.8,80.6-33.5,175-51.3c98.9-18.6,136.3-107.2,155.8-181.9s0,501.3,0,501.3L-14,814.3
	C-13.7,814.1-17.3,808.8-14,792.7z"/>
<path id="Gradient_Fill_3" class="st3" d="M-14.4,802.9c141.2-64.5,212-34.1,318.6-27.7c281.2,17,247.9-98.5,345.5-98.5
	c110.1,0,155.7,89.5,241.7-24.4C973.1,544,995,560.1,1117.2,534.8c41.6-8.6,70.4-44.5,89.9-119.2s-0.8,400-0.8,400L-14,814.3
	C-13.7,814.1-17.7,818.9-14.4,802.9z"/>
</svg>
