<?xml version="1.0" encoding="utf-8"?>
<!-- Generator: Adobe Illustrator 21.0.2, SVG Export Plug-In . SVG Version: 6.00 Build 0)  -->
<svg version="1.1" id="Layer_1" xmlns="http://www.w3.org/2000/svg" xmlns:xlink="http://www.w3.org/1999/xlink" x="0px" y="0px"
	 viewBox="0 0 1200 800" style="enable-background:new 0 0 1200 800;" xml:space="preserve">
<style type="text/css">
	.st0{fill:#3CA03C;}
	.st1{fill:#B4B432;}
	.st2{fill:#505046;}
</style>
<path id="Gradient_Fill_1" class="st0" d="M-93,607c152.5-156.8,229.1-6.7,384.6,63.7S484.9,557.2,585.1,554
	c100.3-3.1,161.7,14.2,228.9-86c55.2-82.4,105.2-110.2,201-117c103.2-7.3,221.5-189.3,241-264s-49.7,728.5-49.7,728.5L-14,814.3
	C-13.7,814.1-96.3,623-93,607z"/>
<path id="Gradient_Fill_2" class="st1" d="M-14,792.7c152.7-87.5,189.3-76.8,297-70.4c191.8,11.4,216.2-104.2,316.2-97.2
	c134.5,9.4,177.1,44.6,276.3-77.7c37.1-45.8,74.2-163.6,168.5-181.4c98.9-18.6,244.5-172.3,264-247s-101.7,696.5-101.7,696.5
	L-14,814.3C-13.7,814.1-17.3,808.8-14,792.7z"/>
<path id="Gradient_Fill_3" class="st2" d="M-14.4,802.9c236.4-127.9,212-34.1,318.6-27.7C585.3,792.2,584.5,712,682,712
	c110.1,0,123.3,54.2,209.3-59.6c81.8-108.4,109.6-26,231.7-51.4c41.6-8.6,64.5-110.8,84.1-185.5s-0.8,400-0.8,400L-14,814.3
	C-13.7,814.1-17.7,818.9-14.4,802.9z"/>
</svg>
