<?xml version="1.0" encoding="utf-8"?>
<!-- Generator: Adobe Illustrator 21.0.2, SVG Export Plug-In . SVG Version: 6.00 Build 0)  -->
<svg version="1.1" id="Layer_1" xmlns="http://www.w3.org/2000/svg" xmlns:xlink="http://www.w3.org/1999/xlink" x="0px" y="0px"
	 viewBox="0 0 1000 1000" style="enable-background:new 0 0 1000 1000;" xml:space="preserve">
<style type="text/css">
	.st0{display:none;}
	.st1{display:inline;fill:#E6E6E6;}
	.st2{display:inline;fill:#F5F5F5;}
	.st3{display:inline;fill:#F0F0F0;}
	.st4{display:inline;fill:#FFFFFF;}
	.st5{display:inline;fill:#FFC846;}
	.st6{display:inline;fill:#FFD250;}
	.st7{display:inline;fill:#FFDC46;}
	.st8{display:inline;fill:#FFE646;}
	.st9{fill:#329632;}
	.st10{fill:#3CA03C;}
	.st11{fill:#C8C8C8;}
	.st12{fill:#46463C;}
	.st13{fill:#505046;}
	.st14{fill:#B4C864;}
	.st15{fill:#AAAA28;}
	.st16{fill:#B4B432;}
	.st17{fill:#D2C850;}
	.st18{fill:#BEBE3C;}
</style>
<g class="st0">
	<path class="st1" d="M696,547.4c-4.1,0-8.2-1.2-11.9-3.6c-9.9-6.6-12.6-20-6-29.9c38.4-57.8,47.3-115.6,23.1-150.8
		c-22.3-32.5-70.3-42.4-135.2-28c-11.6,2.6-23.1-4.7-25.7-16.4c-2.6-11.6,4.7-23.1,16.4-25.7c112.3-24.9,161.1,18,180.1,45.7
		c34.3,50.1,25.6,126.3-22.8,199.1C709.8,544,703,547.4,696,547.4z"/>
	<path class="st1" d="M740.2,668.8c0,138.8-85.9,236.9-248.9,236.9c-163,0-248.9-98.1-248.9-236.9s111.4-251.3,248.9-251.3
		C628.8,417.5,740.2,530,740.2,668.8z"/>
	<path class="st1" d="M645.7,894.9c0,15.9-12.9,28.7-28.7,28.7H365.7c-15.9,0-28.7-12.9-28.7-28.7v-43.1h308.7V894.9z"/>
	<rect x="419.3" y="209.1" class="st1" width="144.2" height="247.7"/>
	<path class="st2" d="M491.3,877c-137.9,0-220.1-77.8-220.1-208.2c0-97.3,64.3-184.9,156.4-213l20.3-6.2V237.8h86.7v211.8l20.3,6.2
		c92.1,28.1,156.4,115.7,156.4,213C711.5,799.1,629.2,877,491.3,877z"/>
	<path class="st3" d="M617,923.6c15.9,0,28.7-12.9,28.7-28.7v-30.4c62.2-41.3,94.5-110.8,94.5-195.7c0-113.4-74.5-209.2-176.8-240.5
		v-169c15.9,0,28.7-12.9,28.7-28.7v-11.7c0-15.9-12.9-28.7-28.7-28.7h-72.1v733.4H617z"/>
	<path class="st4" d="M711.5,668.8c0-97.3-64.3-184.9-156.4-213l-20.3-6.2V237.8h-43.4V877C629.2,877,711.5,799.1,711.5,668.8z"/>
	<path class="st1" d="M592.1,230.6c0,15.9-12.9,28.7-28.7,28.7H419.3c-15.9,0-28.7-12.9-28.7-28.7v-11.7c0-15.9,12.9-28.7,28.7-28.7
		h144.2c15.9,0,28.7,12.9,28.7,28.7V230.6z"/>
	<path class="st5" d="M306.9,577c-13.6,27.7-21.4,58.8-21.4,91.8c0,123.2,75,193.8,205.8,193.8c130.8,0,205.8-70.6,205.8-193.8
		c0-33-7.8-64.1-21.4-91.8H306.9z"/>
	<path class="st6" d="M491.3,862.6c130.8,0,205.8-70.6,205.8-193.8c0-33-7.8-64.1-21.4-91.8H486.7v285.5
		C488.3,862.5,489.7,862.6,491.3,862.6z"/>
	<path class="st7" d="M491.3,805.2c-115.8,0-177.1-57.1-177.1-165.1c0-21.6,3.9-42.8,11.5-63.1h331.1c7.6,20.3,11.5,41.5,11.5,63.1
		C668.4,748.1,607.2,805.2,491.3,805.2z"/>
	<circle class="st1" cx="491.3" cy="146.4" r="70"/>
	<path class="st2" d="M534.6,113.7c-3.6,8.4-17,10.6-30,5.1c-13-5.5-20.7-16.8-17.1-25.2c3.6-8.4,17-10.6,30-5.1
		C530.5,94.1,538.2,105.4,534.6,113.7z"/>
	<path class="st3" d="M563.4,259.3c15.9,0,28.7-12.9,28.7-28.7v-11.7c0-15.9-12.9-28.7-28.7-28.7h-72.1v69.1H563.4z"/>
	<path class="st8" d="M491.3,577v228.2c115.9,0,177.1-57.1,177.1-165.1c0-21.6-3.9-42.8-11.5-63.1H491.3z"/>
</g>
<g>
	<rect x="270.5" y="146.9" class="st9" width="459.1" height="712"/>
	<rect x="497.2" y="146.9" class="st10" width="232.4" height="712"/>
	<rect x="251" y="141.1" class="st11" width="498" height="42.8"/>
	<rect x="251" y="816.1" class="st11" width="498" height="42.8"/>
	<rect x="270.5" y="230.6" class="st12" width="459.1" height="344.3"/>
	<rect x="496.7" y="230.6" class="st13" width="232.8" height="344.3"/>
	<g>
		<path class="st14" d="M570.8,393.1c-1.1,0-2.1-0.7-2.4-1.8c-0.1-0.4-11.4-41.7-31.9-46.2c-1.3-0.3-2.2-1.6-1.9-2.9
			s1.6-2.2,2.9-1.9c23.4,5.2,35.1,47.9,35.6,49.8c0.4,1.3-0.4,2.7-1.7,3C571.3,393.1,571.1,393.1,570.8,393.1z"/>
		<path class="st14" d="M490.1,437.4c-1.2,0-2.3-0.9-2.4-2.2c-1.4-10.9-2.9-47.7,4.4-64c0.6-1.2,2-1.8,3.3-1.2
			c1.2,0.6,1.8,2,1.2,3.3c-6.5,14.5-5.5,49.3-4,61.4c0.2,1.3-0.8,2.6-2.1,2.7C490.3,437.4,490.2,437.4,490.1,437.4z"/>
		<path class="st14" d="M565.7,325.1c-7.3,0-13.5-1.8-19.6-3.5c-2.4-0.7-4.9-1.4-7.4-2c-1.3-0.3-2.1-1.6-1.8-3
			c0.3-1.3,1.6-2.1,3-1.8c2.6,0.6,5.1,1.3,7.6,2c9.6,2.7,18.6,5.3,32,1.1c1.3-0.4,2.7,0.3,3.1,1.6c0.4,1.3-0.3,2.7-1.6,3.1
			C575.2,324.4,570.2,325.1,565.7,325.1z"/>
		<path class="st14" d="M478.5,359.9c-1,0-2-0.7-2.3-1.7c-0.4-1.3,0.3-2.7,1.6-3.1c18.8-6,44.9-6.5,46-6.5c1.3,0,2.5,1.1,2.5,2.4
			c0,1.4-1.1,2.5-2.4,2.5c-0.3,0-26.5,0.5-44.6,6.3C479,359.8,478.7,359.9,478.5,359.9z"/>
		<path class="st14" d="M414.7,457.6c0,0,8.4-14.9,24.8-34.7c3.9-5.1,8.7-10.1,13.5-15.7c5.2-5.2,10.3-11.1,16.2-16.6
			c2.9-2.8,5.9-5.6,8.9-8.4c3.1-2.8,6.3-5.5,9.5-8.3c6.3-5.7,13.2-10.8,19.9-16.1c3.4-2.7,6.9-5.2,10.4-7.6c3.5-2.4,7-4.9,10.5-7.3
			c7-4.8,14.3-8.9,21.2-13.1c6.9-4.2,14-7.5,20.6-11.1c6.5-3.6,13-6.2,18.9-8.9c6-2.5,11.3-5.3,16.3-7c5-1.8,9.3-3.4,12.9-4.7
			c7.1-2.6,11.2-4.1,11.2-4.1c3.8-1.4,8.1,0.6,9.5,4.4c1.4,3.8-0.6,8.1-4.4,9.5c-0.1,0-0.2,0.1-0.4,0.1l-0.5,0.1c0,0-4,1.2-11,3.4
			c-3.5,1.1-7.8,2.4-12.7,3.9c-4.9,1.4-10.2,3.7-16.1,5.9c-5.9,2.3-12.4,4.5-18.8,7.7c-6.5,3.1-13.6,5.9-20.6,9.7
			c-6.9,3.8-14.3,7.4-21.4,11.7c-3.5,2.2-7.1,4.4-10.7,6.6c-3.6,2.1-7.2,4.4-10.6,6.9c-7,4.8-14,9.5-20.5,14.8
			c-3.3,2.6-6.6,5-9.8,7.6c-3.1,2.7-6.2,5.3-9.2,7.9c-6.1,5-11.5,10.6-16.9,15.5c-5,5.3-10.1,10-14.2,14.8
			C423.9,443.2,414.7,457.6,414.7,457.6z"/>
		<path class="st9" d="M455.9,260.7c43.1,11.7,77.6,36.3,89,58.5C524.3,326.2,473.5,298.2,455.9,260.7z"/>
		<path class="st9" d="M366.1,451.2c-2.5-35.7,23.4-112.7,129.3-98.5C461.3,370.9,396.3,413.1,366.1,451.2z"/>
		<path class="st9" d="M441.5,422.3c-32.7,6.5-65,37.2-70.5,130.2C422.1,520.7,441.5,422.3,441.5,422.3z"/>
		<path class="st9" d="M408.2,303.7c38.2,0.9,69.9,23.7,89,47.7C466.4,350.2,424.8,323.1,408.2,303.7z"/>
		<path class="st15" d="M620.6,412.5c9.6,25.4,2.2,51.7-20.6,60.4c-22.9,8.7-45.8-6.2-55.4-31.6c-9.6-25.4,1.7-53.2,20.6-60.4
			C584.1,373.7,611,387.1,620.6,412.5z"/>
		<path class="st16" d="M586.7,465.5c-15.7,0-30.5-12.1-37.6-30.9c-9-23.7,2-48.1,17.8-54c2.8-1.1,5.9-1.6,9.2-1.6
			c14.1,0,32.4,10.4,39.9,30.4c9.1,24,1.6,46.7-17.8,54C594.5,464.8,590.6,465.5,586.7,465.5z"/>
		<path class="st15" d="M534.2,464.3c1,26.9-14.2,49.3-38.4,50.2c-24.2,0.9-41-20.3-42.1-47.1c-1-26.9,18.4-49.4,38.4-50.2
			C512.1,416.4,533.2,437.4,534.2,464.3z"/>
		<path class="st16" d="M494.3,504.6c-19.7,0-34.7-17.8-35.6-42.4c-0.9-25,17-44.4,33.6-45.1l0.9,0c16.3,0,35.2,18.1,36.1,42.4
			c0.5,12.2-2.7,23.4-8.8,31.7c-6.2,8.4-14.8,13-24.9,13.4C495.2,504.6,494.8,504.6,494.3,504.6z"/>
		<path class="st17" d="M513.3,450.8c-4,3.4-11,1.8-15.6-3.6c-4.5-5.4-5-12.5-0.9-15.9c4-3.4,11-1.8,15.6,3.6
			C516.9,440.3,517.3,447.4,513.3,450.8z"/>
		<path class="st17" d="M517,469.9c-2.8,0.5-5.6-1.9-6.1-5.2c-0.6-3.4,1.3-6.5,4.1-6.9c2.8-0.5,5.5,1.9,6.1,5.2
			C521.7,466.3,519.8,469.4,517,469.9z"/>
		<path class="st17" d="M596.1,405.4c-2.9,4.4-10.1,4.8-15.9,0.9c-5.9-3.9-8.2-10.7-5.3-15c2.9-4.4,10.1-4.8,15.9-0.9
			C596.6,394.2,599,401,596.1,405.4z"/>
		<path class="st17" d="M605.5,421c-2.8,0.5-5.6-1.9-6.1-5.2c-0.6-3.4,1.3-6.5,4.1-6.9c2.8-0.5,5.6,1.9,6.1,5.2
			C610.2,417.4,608.3,420.5,605.5,421z"/>
	</g>
	<rect x="270.5" y="606.9" class="st16" width="459.1" height="102.2"/>
	<rect x="496.7" y="606.9" class="st18" width="232.8" height="102.2"/>
</g>
</svg>
