<?xml version="1.0" encoding="utf-8"?>
<!-- Generator: Adobe Illustrator 21.0.2, SVG Export Plug-In . SVG Version: 6.00 Build 0)  -->
<svg version="1.1" id="Layer_1" xmlns="http://www.w3.org/2000/svg" xmlns:xlink="http://www.w3.org/1999/xlink" x="0px" y="0px"
	 viewBox="0 0 1000 1000" style="enable-background:new 0 0 1000 1000;" xml:space="preserve">
<style type="text/css">
	.st0{fill:#E6E6E6;}
	.st1{fill:#F5F5F5;}
	.st2{fill:#F0F0F0;}
	.st3{fill:#FFFFFF;}
	.st4{fill:#FFC846;}
	.st5{fill:#FFD250;}
	.st6{fill:#FFDC46;}
	.st7{fill:#FFE646;}
</style>
<g>
	<path class="st0" d="M696,547.4c-4.1,0-8.2-1.2-11.9-3.6c-9.9-6.6-12.6-20-6-29.9c38.4-57.8,47.3-115.6,23.1-150.8
		c-22.3-32.5-70.3-42.4-135.2-28c-11.6,2.6-23.1-4.7-25.7-16.4c-2.6-11.6,4.7-23.1,16.4-25.7c112.3-24.9,161.1,18,180.1,45.7
		c34.3,50.1,25.6,126.3-22.8,199.1C709.8,544,703,547.4,696,547.4z"/>
	<path class="st0" d="M740.2,668.8c0,138.8-85.9,236.9-248.9,236.9c-163,0-248.9-98.1-248.9-236.9s111.4-251.3,248.9-251.3
		C628.8,417.5,740.2,530,740.2,668.8z"/>
	<path class="st0" d="M645.7,894.9c0,15.9-12.9,28.7-28.7,28.7H365.7c-15.9,0-28.7-12.9-28.7-28.7v-43.1h308.7V894.9z"/>
	<rect x="419.3" y="209.1" class="st0" width="144.2" height="247.7"/>
	<path class="st1" d="M491.3,877c-137.9,0-220.1-77.8-220.1-208.2c0-97.3,64.3-184.9,156.4-213l20.3-6.2V237.8h86.7v211.8l20.3,6.2
		c92.1,28.1,156.4,115.7,156.4,213C711.5,799.1,629.2,877,491.3,877z"/>
	<path class="st2" d="M617,923.6c15.9,0,28.7-12.9,28.7-28.7v-30.4c62.2-41.3,94.5-110.8,94.5-195.7c0-113.4-74.5-209.2-176.8-240.5
		v-169c15.9,0,28.7-12.9,28.7-28.7v-11.7c0-15.9-12.9-28.7-28.7-28.7h-72.1v733.4H617z"/>
	<path class="st3" d="M711.5,668.8c0-97.3-64.3-184.9-156.4-213l-20.3-6.2V237.8h-43.4V877C629.2,877,711.5,799.1,711.5,668.8z"/>
	<path class="st0" d="M592.1,230.6c0,15.9-12.9,28.7-28.7,28.7H419.3c-15.9,0-28.7-12.9-28.7-28.7v-11.7c0-15.9,12.9-28.7,28.7-28.7
		h144.2c15.9,0,28.7,12.9,28.7,28.7V230.6z"/>
	<path class="st4" d="M306.9,577c-13.6,27.7-21.4,58.8-21.4,91.8c0,123.2,75,193.8,205.8,193.8c130.8,0,205.8-70.6,205.8-193.8
		c0-33-7.8-64.1-21.4-91.8H306.9z"/>
	<path class="st5" d="M491.3,862.6c130.8,0,205.8-70.6,205.8-193.8c0-33-7.8-64.1-21.4-91.8H486.7v285.5
		C488.3,862.5,489.7,862.6,491.3,862.6z"/>
	<path class="st6" d="M491.3,805.2c-115.8,0-177.1-57.1-177.1-165.1c0-21.6,3.9-42.8,11.5-63.1h331.1c7.6,20.3,11.5,41.5,11.5,63.1
		C668.4,748.1,607.2,805.2,491.3,805.2z"/>
	<circle class="st0" cx="491.3" cy="146.4" r="70"/>
	<path class="st1" d="M534.6,113.7c-3.6,8.4-17,10.6-30,5.1c-13-5.5-20.7-16.8-17.1-25.2c3.6-8.4,17-10.6,30-5.1
		C530.5,94.1,538.2,105.4,534.6,113.7z"/>
	<path class="st2" d="M563.4,259.3c15.9,0,28.7-12.9,28.7-28.7v-11.7c0-15.9-12.9-28.7-28.7-28.7h-72.1v69.1H563.4z"/>
	<path class="st7" d="M491.3,577v228.2c115.9,0,177.1-57.1,177.1-165.1c0-21.6-3.9-42.8-11.5-63.1H491.3z"/>
</g>
</svg>
