<?xml version="1.0" encoding="utf-8"?>
<!-- Generator: Adobe Illustrator 21.0.2, SVG Export Plug-In . SVG Version: 6.00 Build 0)  -->
<svg version="1.1" xmlns="http://www.w3.org/2000/svg" xmlns:xlink="http://www.w3.org/1999/xlink" x="0px" y="0px"
	 viewBox="0 0 1200 400" style="enable-background:new 0 0 1200 400;" xml:space="preserve">
<style type="text/css">
	.st0{fill:#505046;}
	.st1{fill:#B4C864;}
	.st2{fill:#329632;}
	.st3{fill:#3CA03C;}
	.st4{fill:#288C28;}
	.st5{fill:#FFD250;}
	.st6{fill:#E6E6E6;}
	.st7{fill:#F0F0F0;}
	.st8{fill:#F5F5F5;}
	.st9{fill:#FFFFFF;}
	.st10{fill:#FFDC46;}
	.st11{fill:#FFE650;}
</style>
<g id="Layer_2">
	<g>
		<rect x="-23.2" y="-11.2" class="st0" width="1236.2" height="412.8"/>
		<path id="Gradient_Fill_2" class="st1" d="M610.3,13.4c-52.1,138.6-39.8,181.1,24.8,278c40.3,60.5,38,110.7-24,129.2
			c-64.4,19.2-527.9,5-514,6.4L330.8-2.6C330.8-2.6,629.3-37.4,610.3,13.4z"/>
		<path id="Gradient_Fill_1" class="st2" d="M-8.8,429l139.6-1.7c77.6-165.4,174.4-119.5,263.9-227.9
			C449.4,133.1,499,49.3,496.8-3.2c0,0-472,0.5-514.9,0.8C-20.6-2.3-8.8,429-8.8,429z"/>
	</g>
</g>
<g id="Layer_1">
	<g>
		<path class="st3" d="M843,249.7c-4.9-11-14-16-12.2-29.7c6.5-1,6.4,8.7,12.1,8c1.3-5.6-7.3-11.7-4.1-17.1c0.8-1.4,4.4-2.3,6.3-2.1
			c3.8,0.5,3.6,3.5,6.2,4.2c4.9,1.3,8.2-3.5,13.2-4c4.5-0.5,8.2,2.4,12.5,4.5c10.5,5.3,11,11.6,9.9,23.1
			c-1.1,10.9-10.3,20.4-22.2,19.3c-2.4-6.3-9.4-5.4-14.7-7c-5.5-1.6-12.5-7.3-14.6-13L843,249.7z"/>
		<path class="st3" d="M946,221c-0.2-3.2,5.6-8.5,8.8-8.9c3.6-0.3,5.5,3.4,9.8,2.5c0.7-3.8,4.1-5.5,8-5.8c4.3-0.3,4.7,1.4,7.7,4.3
			c9,8.8,9.4-5.5,18.3-4.7c3.8,0.3,7.1,4.3,6.7,8.3c-0.3,2.6-4,3-1.6,5.6c1.2,1.3,4.4,0.6,5.9,0.6c4.8,0.2,19,0.5,17.6,8.2
			c11.2,1.6,14.8,18.4,5.7,24c-16.5,10-38.8,14.7-57.3,7.7c-11.4-4.3-16.5-14.7-22.1-24.3c-5.3-9.1-9.6-18.9-0.1-26.5L946,221z"/>
		<path class="st4" d="M898.4,208.2c5.7-4.6,5.7,5.3,9.9,6.8c14.5,5.1-1.4-19.5,9.4-20.2c5.2-0.3,1.3,1.6,4.3,5.1
			c1.8,2,1.6,1.2,4.1,2.7c4.1,2.3,9.7,2.7,12.4,6.4c6.6-5.7,7.2,4.1,9.6,7c3.6,4.4,8.6,5.7,11.1,11.6c8.8,20.9-5,35.1-24.1,41.1
			c-17.6,5.5-34,3.9-43.7-12.6c-3.8-6.5-5.9-14.6-7.7-21.9c-2.4-9.3,0.2-11.1,9.7-10.6c1.1-2.6,3.7-5.9,4.3-8.5
			C898.3,212.5,895.7,210.3,898.4,208.2z"/>
		<rect x="914.7" y="135.8" class="st5" width="5.6" height="101.6"/>
		<path class="st2" d="M1023.6,241c2.7-2.4,4.5-10.9,9.7-6.7c1.9,1.6,0.2,5.1,3.2,5.4c3.2,0.3,2.1-2.7,3.8-4
			c2.9-2.3,7.7-3.6,11.3-1.3c2.6,1.7,1.2,2.3,2.6,4.3c0.5,0.8-0.2,2.1,0.5,3c0.2,0.3,3,0.6,3.7,1.1c2.3,1.7,6.9,6,7.3,8.8
			c0.8,7.1-10.7,12.3-16.2,13.5c-8.9,1.9-17.9-2.9-27.1-1.8c-25.3,3.1-48.8,15.6-74.1,19.1c-23.9,3.3-49.8-0.3-73.3-4.5
			c-11.9-2.1-23.7-4.3-35.4-7.3c-7.6-1.9-15.2-2.1-20.7-8.6c-1.7-2-3.6-3.6-3.7-6.5c0-1,2.9-7.5,3.7-6.1c-3.7-7.2,2.2-11.2,8.2-8.1
			c2.4-4.8,6.9,0.9,10.5,2.1c8.8-11.8,14.4,6.5,21.4,5c3.5-0.7,1.7-2.5,2.8-4.9c0.6-1.3-1-2.5-0.8-3.5c0.4-1.4,2.2-1,2.4-1.9
			c1.1-4.8,0.2-9,0.6-13.9c2.5-1.3,6.5-4,9.1-2.2c3.1,2.1,0.2,7.7,1.2,9.8c3.7,8.3,12,5.5,16.8,6.8c3.7,1,4.9,5.2,9.6,4.3
			c5.5-1,2.9-2.9,4.7-6.3c1.9-3.5-0.1-5.2,6.4-4.9c3.9,0.2,8.7,4.5,11.6,1c2.5-3.1-2.8-8.1-1.3-12c3.1-8.3,6.8,1,9,4.8
			c1.1,1.9,1.2,4.4,3.5,5.6c2.5,1.3,3.5-1.2,4.8-0.8c4.2,1.2,6.7,3.1,11.7,2.9c0.4,0.5,0.4,1,0.8,1.4c2.7-4.8,1.9-5.9,7.1-5
			c4.2,0.7,7.8,5,12.2,5.6c-0.8,7.2,3.5,8.2,9.7,8.1c0.7-3.6,0.9-8.4,3.8-10.8c3.5-2.8,9-2.2,10.9,2.3c6-12.4,16.4,15.5,28.1,6.2
			C1023.5,241.1,1023.5,241,1023.6,241z"/>
		<path class="st6" d="M799.2,252c3.6,68.2,63.2,122.5,136.3,122.5s132.8-54.3,136.3-122.5H799.2z"/>
		<path class="st7" d="M1071.8,252H935.5v122.5C1008.6,374.5,1068.2,320.2,1071.8,252z"/>
		<path class="st6" d="M968.8,57.9c0.5,1,0.7,2.1,0.5,3.3c-0.4,3.2-3.4,5.4-6.5,5c-18.6-2.5-33.7,2.2-39.4,12.3
			c-5.3,9.3-2,22.1,9.2,36.2c2,2.5,1.6,6.2-0.9,8.2c-2.5,2-6.2,1.6-8.2-0.9c-19.4-24.3-14.8-41.3-10.3-49.2
			c8.1-14.3,27.7-21.2,51.1-18.1C966.4,54.9,968,56.2,968.8,57.9z"/>
		<path class="st6" d="M993.1,32.8c33.7-16.5,67.8-7.2,87.1,32.4c19.3,39.6,5.7,72.1-28,88.6c-33.7,16.5-74.3,2.7-90.6-30.7
			C945.2,89.7,959.3,49.2,993.1,32.8z"/>
		<path class="st6" d="M1059.2,28.9c1.9-0.9,4-1,5.9-0.4c1.9,0.7,3.6,2.1,4.5,3.9l29.8,61.1c1.9,3.9,0.3,8.5-3.6,10.4l-10.5,5.1
			l-36.6-75L1059.2,28.9z"/>
		
			<rect x="907.5" y="113.6" transform="matrix(0.8986 -0.4388 0.4388 0.8986 37.0142 426.377)" class="st6" width="67" height="39"/>
		<path class="st8" d="M1073.2,68.5c16.4,33.5,7.2,62.7-24.5,78.2c-23.6,11.5-52.6,6.3-70.3-12.7l-3.9-4.2L923,154.9l-10.3-21.1
			l51.5-25.1l-0.9-5.7c-4.1-25.7,9.6-51.7,33.2-63.3C1028.2,24.3,1056.8,35,1073.2,68.5z"/>
		<path class="st7" d="M1069.6,32.5c-1.9-3.9-6.5-5.5-10.4-3.6l-7.4,3.6c-17.4-10.2-38.2-9.8-58.8,0.3c-27.6,13.5-42,42.9-37.5,71.5
			l-41.1,20.1c-1.9-3.9-6.5-5.5-10.4-3.6l-2.8,1.4c-3.9,1.9-5.5,6.5-3.6,10.4l8.6,17.5l178.2-87L1069.6,32.5z"/>
		<path class="st9" d="M996.5,39.7c-23.6,11.5-37.3,37.6-33.2,63.3l0.9,5.7l-51.5,25.1l5.1,10.5l155.3-75.9
			C1056.8,35,1028.2,24.3,996.5,39.7z"/>
		<path class="st6" d="M904.1,120.7c3.9-1.9,8.5-0.3,10.4,3.6l17.1,35c0.9,1.9,1,4,0.4,5.9c-0.7,1.9-2.1,3.6-3.9,4.5l-2.8,1.4
			c-3.9,1.9-8.5,0.3-10.4-3.6l-17.1-35c-0.9-1.9-1-4-0.4-5.9c0.7-1.9,2.1-3.6,3.9-4.5L904.1,120.7z"/>
		<path class="st7" d="M914.5,124.3c-1.9-3.9-6.5-5.5-10.4-3.6l-2.8,1.4c-3.9,1.9-5.5,6.5-3.6,10.4l8.6,17.5l16.8-8.2L914.5,124.3z"
			/>
		<path class="st10" d="M966.8,96.2c0.1,2,0.3,4.1,0.6,6.1l1.4,8.7l-50.5,24.7l6.6,13.6l50.5-24.7l6,6.5
			c10.4,11.1,25.3,17.5,40.8,17.5c8.5,0,17-2,24.6-5.7c21.2-10.3,31.4-26.8,30-46.8H966.8z"/>
		<path class="st11" d="M966.8,96.2c0.1,2,0.3,4.1,0.6,6.1l1.4,8.7l-50.5,24.7l3.3,6.8l94.9-46.3H966.8z"/>
	</g>
</g>
</svg>
